<?xml version="1.0" standalone="no"?><!DOCTYPE svg PUBLIC "-//W3C//DTD SVG 1.1//EN" "http://www.w3.org/Graphics/SVG/1.1/DTD/svg11.dtd"><svg t="1571653669885" class="icon" viewBox="0 0 1024 1024" version="1.1" xmlns="http://www.w3.org/2000/svg" p-id="6474" xmlns:xlink="http://www.w3.org/1999/xlink" width="200" height="200"><defs><style type="text/css"></style></defs><path d="M374.725888 912.4352c0 5.632 4.608 10.24 10.24 10.24h426.3424c36.352-64.5632 64.8704-140.0832 85.2992-226.6112 19.8656-83.8656 35.6352-172.544 47.3088-266.24H601.081088l12.8-61.5424c6.2976-30.464 12.1856-67.1744 17.6128-110.08 10.496-83.5584 4.1984-141.4656-12.9024-176.9472-9.216-19.0976-19.1488-27.2896-24.4224-28.4672-7.8336-1.7408-9.8816-1.792-8.96-2.6624-3.6864 3.328-9.4208 19.968-10.9056 56.6272-3.584 90.5216-71.3216 190.1056-199.5776 304.3328v501.3504z m289.28-533.76h308.736a25.6 25.6 0 0 1 25.4976 28.5184 2596.1472 2596.1472 0 0 1-51.8144 300.6464c-22.9376 97.024-55.7056 181.5552-98.304 253.4912a25.6 25.6 0 0 1-22.016 12.544H384.914688a61.44 61.44 0 0 1-61.44-61.44V388.9152c0-5.632 7.0144-10.1888 11.9296-13.6192 124.16-97.28 184.7296-196.2496 187.6992-270.592 4.5056-112.8448 52.224-108.544 82.0736-101.888 29.9008 6.656 103.0144 55.9616 77.056 261.8368-2.8672 22.528-5.8368 43.4688-8.96 62.8224l-9.3184 51.2zM113.093888 922.624h83.7632V429.8752H79.660288l33.4336 492.8zM35.833088 378.6752h201.984c5.6832 0 10.24 4.608 10.24 10.24V963.584a10.24 10.24 0 0 1-10.24 10.24H74.796288a10.24 10.24 0 0 1-10.24-9.5232L25.695488 389.5808A10.24 10.24 0 0 1 35.833088 378.6752z" fill="#cdcdcd" p-id="6475"></path></svg>