<svg xmlns="http://www.w3.org/2000/svg" viewBox="0 0 1024 1024" width="1024" height="1024">
	<style>
		tspan { white-space:pre }
		.shp0 { fill: #ffffff } 
	</style>
	<path id="Layer" class="shp0" d="M548.66,850.53h266.24c4.89,0 9.74,-0.96 14.26,-2.84c4.52,-1.87 8.63,-4.62 12.09,-8.08c3.46,-3.46 6.21,-7.57 8.08,-12.09c1.87,-4.52 2.84,-9.37 2.84,-14.26v-266.24c0.05,-9.92 -3.85,-19.45 -10.85,-26.48c-7,-7.03 -16.51,-10.99 -26.42,-10.99c-9.92,0 -19.43,3.95 -26.42,10.99c-7,7.03 -10.9,16.56 -10.85,26.48v228.97h-228.97c-9.85,0.05 -19.28,4 -26.23,10.99c-6.95,6.98 -10.85,16.44 -10.85,26.29c0,9.85 3.9,19.3 10.85,26.29c6.95,6.98 16.38,10.93 26.23,10.99zM193.69,495.56c4.89,0 9.74,-0.96 14.26,-2.84c4.52,-1.87 8.63,-4.62 12.09,-8.08c3.46,-3.46 6.21,-7.57 8.08,-12.09c1.87,-4.52 2.84,-9.37 2.84,-14.26l0,-228.97h228.97c9.92,0.05 19.45,-3.85 26.48,-10.85c7.03,-7 10.99,-16.51 10.99,-26.42c0,-9.92 -3.95,-19.43 -10.99,-26.42c-7.03,-7 -16.56,-10.9 -26.48,-10.85l-266.24,0c-4.89,0 -9.74,0.96 -14.26,2.84c-4.52,1.87 -8.63,4.62 -12.09,8.08c-3.46,3.46 -6.21,7.57 -8.08,12.09c-1.87,4.52 -2.84,9.37 -2.84,14.26l0,266.24c0,4.89 0.96,9.74 2.84,14.26c1.87,4.52 4.62,8.63 8.08,12.09c3.46,3.46 7.57,6.21 12.09,8.08c4.52,1.87 9.37,2.84 14.26,2.84z" />
</svg>