<?xml version="1.0" standalone="no"?><!DOCTYPE svg PUBLIC "-//W3C//DTD SVG 1.1//EN" "http://www.w3.org/Graphics/SVG/1.1/DTD/svg11.dtd"><svg t="1569231068540" class="icon" viewBox="0 0 1365 1024" version="1.1" xmlns="http://www.w3.org/2000/svg" p-id="1979" xmlns:xlink="http://www.w3.org/1999/xlink" width="266.6015625" height="200"><defs><style type="text/css"></style></defs><path d="M280.405333 74.666667a162.986667 162.986667 0 0 0-163.072 162.986666v548.693334a162.986667 162.986667 0 0 0 162.986667 162.986666h804.693333a162.986667 162.986667 0 0 0 162.986667-162.986666v-548.693334a162.986667 162.986667 0 0 0-162.986667-162.986666h-804.693333z m0-64h804.522667a226.986667 226.986667 0 0 1 227.072 226.986666v548.693334a226.986667 226.986667 0 0 1-226.986667 226.986666h-804.693333a226.986667 226.986667 0 0 1-226.986667-226.986666v-548.693334a226.986667 226.986667 0 0 1 226.986667-226.986666z m572.330667 481.877333L625.152 355.413333c-16.896-10.24-38.485333 1.365333-38.485333 19.114667v274.176c0 17.664 21.589333 29.269333 38.485333 19.029333L852.736 530.773333a21.845333 21.845333 0 0 0 0-38.144z m-194.56 230.058667c-58.88 35.413333-135.509333-5.546667-135.509333-73.898667V374.528c0-68.437333 76.714667-109.397333 135.594666-73.898667l227.498667 137.045334c56.32 33.962667 56.32 113.92 0 147.797333L658.261333 722.602667z" p-id="1980" fill="#ffffff"></path></svg>